<svg xmlns="http://www.w3.org/2000/svg" viewBox="0 0 525.77 152.77"><defs><style>.cls-1{fill:#fff}</style></defs><title>Asset 2</title><g id="Layer_2" data-name="Layer 2"><path class="cls-1" d="M18.6 107.68c-7.5 0-10.3-4.4-10.3-10.3V59.47H.7c-.7 0-.7-1.2-.7-2.2S0 55 .7 55h7.6V41.87c0-.6 1.7-.6 2.7-.6s2.7 0 2.7.6V55h11.8c.6 0 .6 1.1.6 2.3s0 2.2-.6 2.2H13.7v37.7c0 4.21 1.8 5.81 6.2 5.81h5.5c.7 0 .9.19.9 2.2 0 2.2-.2 2.5-.9 2.5zm20.5-24.41v5.2c0 9.61 5.1 15.51 15.4 15.51a31.75 31.75 0 0 0 16.4-4.2c.8-.4 3.3 3.89 2.3 4.5a37.28 37.28 0 0 1-18.5 4.6c-13.2 0-21-7.4-21-20V72.37c0-12.2 8.6-20 19.9-20 12.2 0 20.5 7.8 20.5 21.1v9.8zM68.7 73c0-10.7-6.9-15.9-15.1-15.9-7.9 0-14.5 5.2-14.5 15.6v6.2h29.6zm27.8 34.68c-7.4 0-10.3-4.4-10.3-10.3v-64c0-.6 1.7-.6 2.7-.6s2.7 0 2.7.6v63.8c0 4.21 1.9 5.91 6.3 5.91h2.7c.7 0 .9.2.9 2.2 0 2.2-.2 2.4-.9 2.4zm16.8-24.41v5.2c0 9.61 5.1 15.51 15.4 15.51a31.75 31.75 0 0 0 16.4-4.2c.8-.4 3.3 3.89 2.3 4.5a37.28 37.28 0 0 1-18.5 4.6c-13.2 0-21-7.4-21-20V72.37c0-12.2 8.6-20 19.9-20 12.2 0 20.5 7.8 20.5 21.1v9.8zM142.9 73c0-10.7-6.9-15.9-15.1-15.9-7.9 0-14.5 5.2-14.5 15.6v6.2h29.6zm53.4 35.08c-1 0-2.7 0-2.7-.6V70.77c0-8.9-3.9-13-10.4-13-6.9 0-13.3 5.9-17.2 11.6v38.11c0 .6-1.7.6-2.7.6s-2.7 0-2.7-.6V53.67c0-.6 1.7-.6 2.7-.6s2.6 0 2.6.6v9.7c4.3-6.1 10.9-11 18.9-11 8.7 0 14.2 6.5 14.2 16v39.11c0 .6-1.7.6-2.7.6zm14.2-18.71v-17.5c0-12.6 7.6-19.5 20.8-19.5s21 6.9 21 19.5v17.5c0 12.51-7.7 19.51-21 19.51s-20.8-7-20.8-19.51zm20.8-32.1c-9.6 0-15.4 4.1-15.4 15.5v15.7c0 11.31 5.8 15.61 15.4 15.61s15.6-4.11 15.6-15.61v-15.7c0-11.3-5.9-15.5-15.6-15.5zm52.2 1.6c-4.4 0-8.1 4-13.6 12.4v36.21c0 .6-1.7.6-2.7.6s-2.6 0-2.6-.6V53.67c0-.6 1.6-.6 2.6-.6s2.5 0 2.5.6v12.1c6-9.1 9.2-12.5 15.2-12.5h2c.6 0 .6 1.9.6 2.9s-.2 2.7-.8 2.7zM372.48 44V33.37c0-.6 1.7-.6 2.7-.6s2.7 0 2.7.6V44c0 .6-1.7.6-2.7.6s-2.7-.03-2.7-.6zm0 63.51V53.67c0-.6 1.7-.6 2.7-.6s2.7 0 2.7.6v53.81c0 .6-1.7.6-2.7.6s-2.7 0-2.7-.6zm55.7.57c-1 0-2.7 0-2.7-.6V70.77c0-8.9-3.9-13-10.4-13-6.9 0-13.3 5.9-17.2 11.6v38.11c0 .6-1.7.6-2.7.6s-2.7 0-2.7-.6V53.67c0-.6 1.7-.6 2.7-.6s2.6 0 2.6.6v9.7c4.3-6.1 10.9-11 18.9-11 8.7 0 14.2 6.5 14.2 16v39.11c0 .6-1.7.6-2.7.6zm21.89-7.41v26.81c0 .6-1.7.6-2.7.6s-2.7 0-2.7-.6V53.67c0-.6 1.7-.6 2.7-.6s2.6 0 2.6.6v7.6a18.31 18.31 0 0 1 16.2-8.9c11.41 0 19.11 6.6 19.11 19.5v17.5c0 12.91-7.7 19.51-18.81 19.51-8.47 0-14-4-16.4-8.21zm0-29.7v18.6c0 9 6.7 14.51 15.51 14.51 8.4 0 14.3-4.11 14.3-15.61v-15.7c0-11.3-6.3-15.4-15.3-15.4-8.21 0-14.51 6.4-14.51 13.63zm57.6 36.71c-7.4 0-10.3-4.4-10.3-10.3v-64c0-.6 1.7-.6 2.7-.6s2.7 0 2.7.6v63.8c0 4.21 1.9 5.91 6.3 5.91h2.7c.7 0 .9.2.9 2.2 0 2.2-.2 2.4-.9 2.4zM520.37 44V33.37c0-.6 1.7-.6 2.7-.6s2.7 0 2.7.6V44c0 .6-1.7.6-2.7.6s-2.7-.03-2.7-.6zm0 63.51V53.67c0-.6 1.7-.6 2.7-.6s2.7 0 2.7.6v53.81c0 .6-1.7.6-2.7.6s-2.7 0-2.7-.6zM330 152.77a2.09 2.09 0 0 1-2.09-2.09V2.09a2.09 2.09 0 1 1 4.18 0v148.59a2.08 2.08 0 0 1-2.09 2.09z" id="Layer_1-2" data-name="Layer 1"/></g></svg>