<?xml version="1.0" encoding="UTF-8" standalone="no"?>
<svg xmlns:rdf="http://www.w3.org/1999/02/22-rdf-syntax-ns#" xmlns="http://www.w3.org/2000/svg" height="100%" width="100%" version="1.1" xmlns:cc="http://creativecommons.org/ns#" xmlns:dc="http://purl.org/dc/elements/1.1/" viewBox="0 0 576.97 434.37986">
  <defs>
    <radialGradient id="radialGradient3937" gradientUnits="userSpaceOnUse" cy="676.79" cx="508.65" gradientTransform="matrix(1,0,0,0.5704,-2,274.75)" r="86.402">
      <stop stop-color="#000000" offset="0"/>
      <stop stop-color="#000000" stop-opacity="0" offset="1"/>
    </radialGradient>
    <filter id="filter3967" color-interpolation-filters="sRGB">
      <feGaussianBlur stdDeviation="2.7953664"/>
    </filter>
  </defs>
  <g transform="translate(-101.23498,-272.06)">
    <path d="m420.75,672.71v-18.688l82.055-42.01,89.748,35.306v18.414l-93.012,43.848-78.792-36.871z" transform="matrix(3.115,0,0,3.115,-1188.5,-1524.8)" filter="url(#filter3967)" fill="url(#radialGradient3937)"/>
    <path style="color:#000000;" fill="#3a78a0" d="M143.37,387.98,384.43,501.62,630.32,385.7,389.26,272.06z"/>
    <path style="color:#000000;" fill="#5dacd1" d="M384.43,501.62v141.21l245.89-115.92v-141.21z"/>
    <path style="color:#000000;" fill="#1b4a78" d="M143.37,387.98,384.43,501.62v141.21l-241.06-113.64z"/>
    <path fill-opacity="0.7" fill="#f2fdff" d="m422.47,315.78-38.514,5.6218-38.514,5.6218,16.367,5.3307-46.555,22.107,30.52,9.9405,46.555-22.107,16.367,5.3308,6.8691-15.929,6.9054-15.917z"/>
    <path fill-opacity="0.7" fill="#f2fdff" d="m269.31,421.78,6.8691-15.929,6.8691-15.929,16.367,5.3308,46.555-22.107,30.52,9.9405-46.555,22.107,16.367,5.3307-38.514,5.6218-38.477,5.6336z"/>
    <path fill-opacity="0.7" fill="#f2fdff" d="m507.05,352.03-38.514,5.6218-38.514,5.6218,16.367,5.3307-46.555,22.107,30.52,9.9405,46.555-22.107,16.367,5.3308,6.8691-15.929,6.9054-15.917z"/>
    <path fill-opacity="0.7" fill="#f2fdff" d="m353.9,458.03,6.8691-15.929,6.8691-15.929,16.367,5.3308,46.555-22.107,30.52,9.9405-46.555,22.107,16.367,5.3307-38.514,5.6218-38.477,5.6336z"/>
  </g>
  <metadata>
    <rdf:RDF>
      <cc:Work>
        <dc:format>image/svg+xml</dc:format>
        <dc:type rdf:resource="http://purl.org/dc/dcmitype/StillImage"/>
        <cc:license rdf:resource="http://creativecommons.org/licenses/publicdomain/"/>
      </cc:Work>
      <cc:License rdf:about="http://creativecommons.org/licenses/publicdomain/">
        <cc:permits rdf:resource="http://creativecommons.org/ns#Reproduction"/>
        <cc:permits rdf:resource="http://creativecommons.org/ns#Distribution"/>
        <cc:permits rdf:resource="http://creativecommons.org/ns#DerivativeWorks"/>
      </cc:License>
    </rdf:RDF>
  </metadata>
</svg>
